# This file uses centimeters as units for non-parametric coordinates.

g default
v -0.368721 0.334895 -3.018414
v 0.000000 0.334895 -3.018414
v -0.368721 2.854499 -3.018418
v 0.000000 2.854499 -3.018418
v -0.156106 2.854500 -0.159015
v -0.156105 0.334895 -0.159012
v -0.156106 2.854500 -3.018416
v -0.156105 0.334895 -3.018414
v -0.156105 6.301069 -0.159015
v -0.156105 3.149158 -0.159016
v -0.156105 6.301070 -3.018416
v -0.156105 3.149158 -3.018418
v -0.368721 0.054939 0.000000
v 0.000000 0.054939 0.000000
v -0.368722 6.620090 0.000000
v -0.000001 6.620091 0.000000
v -0.368722 6.620090 -3.177433
v -0.000001 6.620091 -3.177433
v -0.368721 0.054939 -3.177433
v 0.000000 0.054939 -3.177433
v -0.368721 0.334895 0.000000
v 0.000000 0.334895 0.000000
v 0.000000 0.334895 -3.177429
v -0.368721 0.334895 -3.177429
v -0.368721 6.301066 -3.177433
v 0.000000 6.301066 -3.177433
v 0.000000 6.301069 0.000000
v -0.368721 6.301069 0.000000
v -0.368721 3.149159 0.000000
v 0.000000 3.149159 0.000000
v 0.000000 3.149158 -3.177433
v -0.368721 3.149158 -3.177433
v -0.368721 2.854500 0.000000
v 0.000000 2.854500 0.000000
v 0.000000 2.854499 -3.177433
v -0.368721 2.854499 -3.177433
v -0.368722 6.620090 -0.159015
v -0.368722 6.620090 -3.018418
v -0.000001 6.620091 -3.018418
v -0.000001 6.620091 -0.159015
v 0.000000 6.301066 -3.018418
v 0.000000 6.301069 -0.159015
v 0.000000 0.334895 -0.159012
v 0.000000 0.334895 -3.018414
v 0.000000 0.054939 -3.018418
v 0.000000 0.054939 -0.159015
v -0.368721 0.054939 -3.018418
v -0.368721 0.054939 -0.159015
v -0.368721 0.334895 -3.018414
v -0.368721 0.334895 -0.159012
v -0.368721 2.854499 -3.018418
v -0.368721 2.854500 -0.159015
v 0.000000 3.149159 -0.159015
v 0.000000 3.149158 -3.018418
v -0.368721 6.301069 -0.159015
v -0.368721 6.301067 -3.018418
v 0.000000 2.854500 -0.159015
v 0.000000 2.854499 -3.018418
v -0.368721 3.149159 -0.159015
v -0.368721 3.149158 -3.018418
v 2.995917 7.937327 -0.159015
v 0.205418 6.866154 -0.159012
v 2.995917 7.937327 -3.018416
v 0.205418 6.866154 -3.018414
v 5.775321 9.004242 -0.159015
v 3.242105 8.031829 -0.159016
v 5.775321 9.004242 -3.018416
v 3.242105 8.031829 -3.018418
v -0.132138 6.964322 0.000000
v 5.965816 9.320696 -0.000001
v 6.097953 8.976467 -0.000001
v 5.965816 9.320696 -3.177433
v 6.097953 8.976467 -3.177433
v -0.132138 6.964322 -3.177433
v 0.129223 7.064648 0.000000
v 0.261358 6.720417 0.000000
v 0.261358 6.720417 -3.177429
v 0.129223 7.064648 -3.177429
v 5.699123 9.202732 -3.177433
v 5.831261 8.858501 -3.177433
v 5.831264 8.858501 0.000000
v 5.699126 9.202734 0.000000
v 3.180028 8.235743 0.000000
v 3.312167 7.891511 0.000000
v 3.312166 7.891514 -3.177433
v 3.180028 8.235743 -3.177433
v 2.904943 8.130148 0.000000
v 3.037079 7.785916 0.000000
v 3.037077 7.785916 -3.177433
v 2.904940 8.130146 -3.177433
v 5.965816 9.320696 -0.159016
v 5.965816 9.320696 -3.018419
v 6.097953 8.976467 -3.018419
v 6.097953 8.976467 -0.159016
v 5.831261 8.858501 -3.018418
v 5.831264 8.858501 -0.159015
v 0.261358 6.720417 -0.159012
v 0.261358 6.720417 -3.018414
v -0.132138 6.964322 -3.018418
v -0.132138 6.964322 -0.159015
v 0.129223 7.064648 -3.018414
v 0.129223 7.064648 -0.159012
v 2.850592 8.109283 -3.018418
v 2.850595 8.109285 -0.159015
v 3.355494 7.908144 -0.159015
v 3.355493 7.908146 -3.018418
v 5.699126 9.202734 -0.159015
v 5.699124 9.202732 -3.018418
v 2.982732 7.765054 -0.159015
v 2.982729 7.765053 -3.018418
v 3.223354 8.252375 -0.159015
v 3.223354 8.252375 -3.018418
vt 0.332616 0.242525
vt 0.332610 0.264198
vt 0.184513 0.242478
vt 0.184506 0.264151
vt 0.780635 0.772246
vt 0.623470 0.767287
vt 0.629098 0.588927
vt 0.786263 0.593886
vt 0.582085 0.795300
vt 0.778777 0.797368
vt 0.776902 0.975806
vt 0.580209 0.973739
vt 0.228802 0.080236
vt 0.228733 0.057225
vt 0.425436 0.056637
vt 0.425504 0.079648
vt 0.551034 0.208280
vt 0.551074 0.231291
vt 0.354371 0.231636
vt 0.354331 0.208625
vt 0.035700 0.080813
vt 0.035631 0.057802
vt 0.053102 0.057750
vt 0.053171 0.080761
vt 0.178699 0.208932
vt 0.178740 0.231943
vt 0.161268 0.231974
vt 0.161228 0.208963
vt 0.564678 0.047500
vt 0.541806 0.050021
vt 0.539624 0.030232
vt 0.562496 0.027710
vt 0.455290 0.033478
vt 0.473641 0.019594
vt 0.485653 0.035472
vt 0.467302 0.049355
vt 0.210413 0.080291
vt 0.210344 0.057280
vt 0.335982 0.231668
vt 0.335942 0.208657
vt 0.234015 0.948820
vt 0.234729 0.770373
vt 0.254638 0.770452
vt 0.253924 0.948900
vt 0.297558 0.770624
vt 0.296844 0.949071
vt 0.276935 0.948992
vt 0.277649 0.770544
vt 0.296008 0.333480
vt 0.301119 0.511855
vt 0.283655 0.512356
vt 0.278544 0.333980
vt 0.260653 0.513015
vt 0.255542 0.334639
vt 0.336474 0.332320
vt 0.341585 0.510696
vt 0.324121 0.511196
vt 0.319010 0.332821
vt 0.576421 0.301708
vt 0.576032 0.480157
vt 0.557643 0.480117
vt 0.558032 0.301668
vt 0.535021 0.301618
vt 0.534632 0.480066
vt 0.516243 0.480026
vt 0.516632 0.301578
vt 0.151344 0.231991
vt 0.151304 0.208980
vt 0.551091 0.241215
vt 0.354388 0.241559
vt 0.354446 0.274494
vt 0.354429 0.264570
vt 0.551132 0.264226
vt 0.551149 0.274150
vt 0.178757 0.241867
vt 0.161286 0.241897
vt 0.161343 0.274832
vt 0.161326 0.264908
vt 0.178797 0.264878
vt 0.178815 0.274801
vt 0.228703 0.047301
vt 0.425406 0.046713
vt 0.035601 0.047879
vt 0.053073 0.047826
vt 0.025776 0.080843
vt 0.025707 0.057832
vt 0.053004 0.024816
vt 0.035532 0.024868
vt 0.035503 0.014944
vt 0.052974 0.014892
vt 0.425307 0.013778
vt 0.425337 0.023702
vt 0.228635 0.024290
vt 0.228605 0.014367
vt 0.277688 0.760621
vt 0.297598 0.760700
vt 0.276895 0.958915
vt 0.296805 0.958995
vt 0.253884 0.958823
vt 0.233975 0.958744
vt 0.254678 0.760529
vt 0.234768 0.760449
vt 0.210315 0.047356
vt 0.335999 0.241591
vt 0.336057 0.274526
vt 0.336040 0.264603
vt 0.210246 0.024345
vt 0.210216 0.014422
vt 0.493232 0.479976
vt 0.493622 0.301528
vt 0.799016 0.015575
vt 0.985543 0.013508
vt 0.987520 0.191945
vt 0.800993 0.194012
vt 0.799016 0.378121
vt 0.801233 0.208796
vt 0.979667 0.211132
vt 0.977449 0.380457
vt 0.372834 0.179043
vt 0.372699 0.156032
vt 0.541092 0.155047
vt 0.541227 0.178058
vt 0.222194 0.303571
vt 0.222194 0.399807
vt 0.174892 0.399807
vt 0.174892 0.303571
vt 0.492038 0.057580
vt 0.502439 0.030624
vt 0.508824 0.052732
vt 0.536830 0.078482
vt 0.526279 0.058032
vt 0.552357 0.070471
vt 0.467066 0.329411
vt 0.444057 0.329162
vt 0.443345 0.310976
vt 0.466355 0.311226
vt 0.463813 0.545861
vt 0.440803 0.545611
vt 0.441908 0.527446
vt 0.464918 0.527695
vt 0.354445 0.179150
vt 0.354311 0.156140
vt 0.169433 0.399807
vt 0.169433 0.303571
vt 0.168898 0.180235
vt 0.168763 0.157225
vt 0.133165 0.399807
vt 0.133165 0.303571
vt 0.382610 0.516879
vt 0.384544 0.338441
vt 0.402741 0.338638
vt 0.400808 0.517076
vt 0.443949 0.339085
vt 0.442016 0.517523
vt 0.423818 0.517326
vt 0.425751 0.338888
vt 0.315029 0.770694
vt 0.314315 0.949141
vt 0.208661 0.770269
vt 0.207948 0.948716
vt 0.190477 0.948646
vt 0.191190 0.770199
vt 0.650966 0.198671
vt 0.656686 0.020314
vt 0.681592 0.021113
vt 0.675872 0.199470
vt 0.603062 0.197135
vt 0.608782 0.018778
vt 0.633687 0.019577
vt 0.627967 0.197933
vt 0.161870 0.968317
vt 0.151948 0.968484
vt 0.149159 0.803008
vt 0.159033 0.799945
vt 0.116181 0.800668
vt 0.126152 0.803396
vt 0.128940 0.968872
vt 0.119018 0.969039
vt 0.315069 0.760771
vt 0.208701 0.760345
vt 0.191230 0.760275
vt 0.375537 0.146092
vt 0.541034 0.145124
vt 0.314276 0.959065
vt 0.207908 0.958640
vt 0.190437 0.958570
vt 0.540841 0.112189
vt 0.540899 0.122113
vt 0.375403 0.123081
vt 0.372448 0.113174
vt 0.425859 0.328965
vt 0.423710 0.527249
vt 0.400701 0.527000
vt 0.382503 0.526802
vt 0.402849 0.328715
vt 0.384651 0.328518
vt 0.350620 0.146237
vt 0.148739 0.778094
vt 0.158723 0.781559
vt 0.115871 0.782281
vt 0.125732 0.778481
vt 0.350485 0.123227
vt 0.354060 0.113282
vt 0.168705 0.147301
vt 0.145674 0.596202
vt 0.155597 0.596035
vt 0.112744 0.596757
vt 0.122666 0.596590
vt 0.168571 0.124291
vt 0.168513 0.114367
vt 0.580063 0.196397
vt 0.585783 0.018040
vt 0.338040 0.770786
vt 0.337326 0.949233
vt 0.465025 0.517772
vt 0.466959 0.339334
vn 0.000000 0.000002 1.000000
vn 0.000000 0.000002 1.000000
vn 0.000000 0.000002 1.000000
vn 0.000000 0.000002 1.000000
vn 1.000000 0.000000 0.000000
vn 1.000000 0.000000 0.000000
vn 1.000000 0.000000 0.000000
vn 1.000000 0.000000 0.000000
vn 1.000000 0.000000 0.000000
vn 1.000000 0.000000 0.000000
vn 1.000000 0.000000 0.000000
vn 1.000000 0.000000 0.000000
vn 0.000000 0.000000 1.000000
vn 0.000000 0.000000 1.000000
vn 0.000000 0.000000 1.000000
vn 0.000000 0.000000 1.000000
vn 0.000000 0.000000 -1.000000
vn 0.000000 0.000000 -1.000000
vn 0.000000 0.000000 -1.000000
vn 0.000000 0.000000 -1.000000
vn 0.000000 0.000000 1.000000
vn 0.000000 0.000000 1.000000
vn 0.000000 0.000000 1.000000
vn 0.000000 0.000000 1.000000
vn 0.000000 0.000000 -1.000000
vn 0.000000 0.000000 -1.000000
vn 0.000000 0.000014 -1.000000
vn 0.000000 0.000014 -1.000000
vn 0.000000 0.000000 -1.000000
vn 0.000000 0.000000 -1.000000
vn 0.000000 0.000000 1.000000
vn 0.000000 0.000000 1.000000
vn 0.000000 0.000000 1.000000
vn 0.000000 0.000000 1.000000
vn 0.000000 -0.000001 -1.000000
vn 0.000000 -0.000001 -1.000000
vn -1.000000 -0.000003 0.000000
vn -1.000000 -0.000003 0.000000
vn -1.000000 -0.000002 0.000000
vn -1.000000 -0.000002 0.000000
vn 1.000000 0.000003 -0.000000
vn 1.000000 0.000003 -0.000000
vn 1.000000 0.000002 -0.000000
vn 1.000000 0.000002 -0.000000
vn 1.000000 0.000000 0.000000
vn 1.000000 0.000000 0.000000
vn 1.000000 0.000000 0.000000
vn 1.000000 0.000000 0.000000
vn 0.000000 -1.000000 0.000000
vn 0.000000 -1.000000 0.000000
vn 0.000000 -1.000000 0.000000
vn 0.000000 -1.000000 0.000000
vn -1.000000 0.000000 0.000000
vn -1.000000 0.000000 0.000000
vn -1.000000 0.000000 0.000000
vn -1.000000 0.000000 0.000000
vn -1.000000 -0.000000 0.000000
vn -1.000000 0.000000 0.000000
vn -1.000000 0.000000 0.000000
vn -1.000000 0.000000 0.000000
vn 1.000000 0.000000 0.000000
vn 1.000000 0.000000 0.000000
vn 1.000000 0.000000 0.000000
vn 1.000000 0.000000 0.000000
vn 0.000000 -1.000000 0.000000
vn 0.000000 -1.000000 0.000000
vn 1.000000 0.000000 0.000000
vn 1.000000 0.000000 0.000000
vn -1.000000 0.000000 0.000000
vn -1.000000 -0.000000 0.000000
vn 1.000000 0.000000 0.000000
vn 1.000000 0.000000 0.000000
vn -1.000000 0.000000 0.000000
vn -1.000000 0.000000 0.000000
vn 1.000000 0.000000 0.000000
vn 1.000000 0.000000 -0.000000
vn 1.000000 0.000000 0.000000
vn 1.000000 0.000000 0.000000
vn 0.000000 -1.000000 0.000000
vn 0.000000 -1.000000 0.000000
vn -1.000000 0.000000 0.000000
vn -1.000000 0.000000 0.000000
vn -1.000000 -0.000000 0.000000
vn -1.000000 0.000000 0.000000
vn 1.000000 0.000003 0.000000
vn 1.000000 0.000003 -0.000000
vn -1.000000 -0.000003 0.000000
vn -1.000000 -0.000003 0.000000
vn 1.000000 0.000000 0.000000
vn 1.000000 0.000000 0.000000
vn -1.000000 -0.000000 0.000000
vn -1.000000 0.000000 0.000000
vn 0.000001 1.000000 -0.000000
vn 0.000001 1.000000 -0.000000
vn 0.000001 1.000000 -0.000000
vn 0.000001 1.000000 -0.000000
vn 0.000000 0.000000 1.000000
vn 0.000000 0.000000 1.000000
vn 0.000000 0.000000 1.000000
vn 0.000000 0.000000 1.000000
vn -0.000001 -1.000000 0.000001
vn -0.000001 -1.000000 0.000001
vn -0.000001 -1.000000 0.000001
vn -0.000001 -1.000000 0.000001
vn -0.000000 0.000000 -1.000000
vn -0.000000 0.000000 -1.000000
vn -0.000000 0.000000 -1.000000
vn -0.000000 0.000000 -1.000000
vn -0.000000 -0.000001 -1.000000
vn -0.000000 -0.000001 -1.000000
vn -0.000000 -0.000001 -1.000000
vn -0.000000 -0.000001 -1.000000
vn 0.000000 1.000000 0.000000
vn 0.000000 1.000000 0.000000
vn 0.000000 1.000000 0.000000
vn 0.000000 1.000000 0.000000
vn -0.000001 -1.000000 0.000000
vn -0.000001 -1.000000 0.000000
vn -0.000001 -1.000000 0.000000
vn -0.000001 -1.000000 0.000000
vn 0.358368 -0.933580 0.000000
vn 0.358368 -0.933580 0.000000
vn 0.358368 -0.933580 0.000000
vn 0.358368 -0.933580 0.000000
vn 0.358369 -0.933580 0.000000
vn 0.358369 -0.933580 0.000000
vn 0.358369 -0.933580 0.000000
vn 0.358369 -0.933580 0.000000
vn 0.000000 0.000000 1.000000
vn 0.000000 0.000000 1.000000
vn 0.000000 0.000000 1.000000
vn 0.000000 0.000000 1.000000
vn -0.000001 -0.000000 -1.000000
vn -0.000001 -0.000000 -1.000000
vn -0.000000 0.000000 -1.000000
vn -0.000000 0.000000 -1.000000
vn 0.000000 0.000000 1.000000
vn 0.000000 0.000000 1.000000
vn 0.000000 0.000000 1.000000
vn 0.000000 0.000000 1.000000
vn -0.000000 -0.000000 -1.000000
vn -0.000000 0.000000 -1.000000
vn 0.000012 0.000005 -1.000000
vn 0.000012 0.000005 -1.000000
vn -0.000003 -0.000001 -1.000000
vn -0.000003 -0.000001 -1.000000
vn 0.000003 0.000001 1.000000
vn 0.000003 0.000001 1.000000
vn 0.000000 0.000000 1.000000
vn 0.000000 0.000000 1.000000
vn -0.000001 -0.000000 -1.000000
vn -0.000001 -0.000000 -1.000000
vn -0.404517 0.914531 -0.000000
vn -0.404517 0.914531 -0.000000
vn -0.389587 0.920990 -0.000000
vn -0.389587 0.920990 -0.000000
vn 0.404524 -0.914528 -0.000000
vn 0.404524 -0.914527 -0.000000
vn 0.389592 -0.920987 -0.000000
vn 0.389592 -0.920987 0.000001
vn 0.358367 -0.933581 0.000000
vn 0.358367 -0.933581 -0.000001
vn 0.358367 -0.933581 0.000000
vn 0.358367 -0.933581 0.000000
vn -0.358366 0.933581 0.000000
vn -0.358366 0.933581 0.000000
vn -0.358367 0.933581 0.000000
vn -0.358367 0.933581 0.000001
vn -0.358369 0.933580 0.000001
vn -0.358369 0.933580 -0.000000
vn -0.358369 0.933580 -0.000000
vn -0.358369 0.933580 -0.000000
vn 0.358370 -0.933580 0.000001
vn 0.358370 -0.933580 -0.000000
vn 0.358370 -0.933580 -0.000002
vn 0.358370 -0.933580 -0.000000
vn 0.362944 -0.931811 0.000004
vn 0.358368 -0.933580 0.000004
vn -0.358368 0.933580 -0.000001
vn -0.362944 0.931811 0.000000
vn 0.358367 -0.933581 0.000000
vn 0.358368 -0.933581 0.000000
vn -0.358366 0.933581 0.000000
vn -0.358367 0.933581 0.000004
vn 0.358368 -0.933581 -0.000001
vn 0.362945 -0.931811 0.000000
vn 0.358367 -0.933581 0.000000
vn 0.358368 -0.933581 -0.000004
vn -0.358366 0.933581 0.000000
vn -0.358368 0.933580 0.000000
vn -0.362944 0.931811 0.000000
vn -0.358368 0.933581 0.000000
vn 0.404522 -0.914528 0.000000
vn 0.404526 -0.914527 0.000000
vn -0.404515 0.914531 0.000000
vn -0.404517 0.914530 0.000000
vn 0.358368 -0.933581 -0.000004
vn 0.358369 -0.933580 0.000000
vn -0.358368 0.933581 0.000003
vn -0.358368 0.933580 0.000000
vn 0.933579 0.358373 -0.000000
vn 0.933579 0.358373 -0.000000
vn 0.933579 0.358373 -0.000000
vn 0.933579 0.358373 -0.000000
vn 0.000000 0.000000 1.000000
vn 0.000000 0.000000 1.000000
vn 0.000000 0.000000 1.000000
vn 0.000000 0.000000 1.000000
vn -0.933582 -0.358365 0.000001
vn -0.933582 -0.358365 0.000001
vn -0.933582 -0.358365 0.000001
vn -0.933582 -0.358365 0.000001
vn 0.000000 0.000000 -1.000000
vn 0.000000 0.000000 -1.000000
vn 0.000000 0.000000 -1.000000
vn 0.000000 0.000000 -1.000000
vn -0.000001 -0.000000 -1.000000
vn -0.000001 -0.000000 -1.000000
vn -0.000001 -0.000000 -1.000000
vn -0.000001 -0.000000 -1.000000
vn 0.933583 0.358362 0.000000
vn 0.933583 0.358362 0.000000
vn 0.933583 0.358362 0.000000
vn 0.933583 0.358362 0.000000
vn -0.933581 -0.358366 0.000001
vn -0.933581 -0.358366 0.000001
vn -0.933581 -0.358366 0.000001
vn -0.933581 -0.358366 0.000001
vn 0.000001 0.000000 1.000000
vn 0.000001 0.000000 1.000000
vn 0.000001 0.000000 1.000000
vn 0.000001 0.000000 1.000000
vn -0.824127 0.566406 0.000000
vn -0.824127 0.566406 0.000000
vn -0.824127 0.566406 0.000000
vn -0.824127 0.566406 0.000000
vn -0.824127 0.566406 0.000000
vn -0.824127 0.566406 0.000000
vn -0.824127 0.566406 0.000000
vn -0.824127 0.566406 0.000000
vn -0.824127 0.566406 0.000000
vn -0.824127 0.566406 0.000000
vn -0.824127 0.566406 0.000000
vn -0.824127 0.566406 0.000000
vn 0.000000 0.000000 -1.000000
vn 0.000000 0.000000 -1.000000
vn 0.000000 0.000000 -1.000000
vn 0.000000 0.000000 1.000000
vn 0.000000 0.000000 1.000000
vn 0.000000 0.000000 1.000000
vn 0.933580 0.358369 0.000000
vn 0.933580 0.358369 0.000000
vn 0.933580 0.358369 0.000000
vn 0.933580 0.358369 0.000000
vn 0.933580 0.358369 0.000000
vn 0.933580 0.358369 0.000000
vn 0.933580 0.358369 0.000000
vn 0.933580 0.358369 0.000000
vn 0.933580 0.358368 0.000000
vn 0.933580 0.358368 0.000000
vn 0.933580 0.358368 0.000000
vn 0.933580 0.358368 0.000000
s off
g pPlane17
f 1/1/1 2/2/2 4/4/3 3/3/4
f 5/5/5 6/6/6 8/7/7 7/8/8
f 9/9/9 10/10/10 12/11/11 11/12/12
s 1
f 29/13/13 30/14/14 27/15/15 28/16/16
s 2
f 25/17/17 26/18/18 31/19/19 32/20/20
s 1
f 13/21/21 14/22/22 22/23/23 21/24/24
s 2
f 24/25/25 23/26/26 20/27/27 19/28/28
f 17/29/29 18/30/30 26/31/18 25/32/17
s 1
f 28/33/16 27/34/15 16/35/31 15/36/32
f 33/37/33 34/38/34 30/14/14 29/13/13
s 2
f 32/20/20 31/19/19 35/39/35 36/40/36
s 1
f 21/24/24 22/23/23 34/38/34 33/37/33
s 2
f 36/40/36 35/39/35 23/26/26 24/25/25
s 5
f 37/41/37 38/42/38 56/43/39 55/44/40
s 6
f 39/45/41 40/46/42 42/47/43 41/48/44
f 44/49/45 43/50/46 46/51/47 45/52/48
s 8
f 45/52/49 46/51/50 48/53/51 47/54/52
s 5
f 47/55/53 48/56/54 50/57/55 49/58/56
f 51/59/57 52/60/58 59/61/59 60/62/60
s 6
f 54/63/61 53/64/62 57/65/63 58/66/64
s 8
f 19/28/65 20/27/66 45/67/49 47/68/52
s 6
f 26/18/67 41/69/44 54/70/61 31/19/68
s 5
f 32/71/69 60/72/60 56/73/39 25/74/70
s 6
f 44/75/45 45/76/48 20/27/71 23/26/72
s 5
f 19/77/73 47/78/53 49/79/56 24/80/74
s 6
f 30/14/75 53/81/62 42/82/43 27/15/76
f 14/22/77 46/83/47 43/84/46 22/23/78
s 8
f 48/85/51 46/86/50 14/22/79 13/21/80
s 5
f 50/87/55 48/88/54 13/89/81 21/90/82
f 28/91/83 55/92/40 59/93/59 29/94/84
s 6
f 39/45/41 41/48/44 26/95/67 18/96/85
f 27/97/76 42/47/43 40/46/42 16/98/86
s 5
f 37/41/37 55/44/40 28/99/83 15/100/87
f 25/101/70 56/43/39 38/42/38 17/102/88
s 6
f 34/38/89 57/103/63 53/81/62 30/14/75
f 31/19/68 54/70/61 58/104/64 35/39/90
s 5
f 36/105/91 51/106/57 60/72/60 32/71/69
f 29/94/84 59/93/59 52/107/58 33/108/92
s 6
f 22/23/78 43/84/46 57/103/63 34/38/89
f 35/39/90 58/104/64 44/75/45 23/26/72
s 5
f 24/80/74 49/79/56 51/106/57 36/105/91
f 33/108/92 52/107/58 50/87/55 21/90/82
s off
f 53/64/93 54/63/94 60/62/95 59/61/96
f 54/70/97 41/69/98 56/73/99 60/72/100
f 55/44/101 56/43/102 41/48/103 42/47/104
f 42/82/105 53/81/106 59/93/107 55/92/108
f 57/103/109 43/84/110 50/87/111 52/107/112
f 43/50/113 44/49/114 49/58/115 50/57/116
f 58/66/117 57/65/118 52/109/119 51/110/120
f 61/111/121 62/112/122 64/113/123 63/114/124
f 65/115/125 66/116/126 68/117/127 67/118/128
s 12
f 83/119/129 84/120/130 81/121/131 82/122/132
s 13
f 79/123/133 80/124/134 85/125/135 86/126/136
s 12
f 69/127/137 16/35/138 76/128/139 75/129/140
s 13
f 78/130/141 77/131/142 18/30/143 74/132/144
f 72/133/145 73/134/146 80/135/134 79/136/133
s 12
f 82/137/132 81/138/131 71/139/147 70/140/148
f 87/141/149 88/142/150 84/120/130 83/119/129
s 13
f 86/126/136 85/125/135 89/143/151 90/144/152
s 12
f 75/145/140 76/146/139 88/142/150 87/141/149
s 13
f 90/144/152 89/143/151 77/147/142 78/148/141
s 16
f 91/149/153 92/150/154 108/151/155 107/152/156
s 17
f 93/153/157 94/154/158 96/155/159 95/156/160
f 98/157/161 97/158/162 40/46/163 39/45/164
s 16
f 99/159/165 100/160/166 102/161/167 101/162/168
f 103/163/169 104/164/170 111/165/171 112/166/172
s 17
f 106/167/173 105/168/174 109/169/175 110/170/176
f 80/171/177 95/172/160 106/173/173 85/174/178
s 16
f 86/175/179 112/176/172 108/177/155 79/178/180
s 17
f 98/157/161 39/45/164 18/96/181 77/179/182
s 16
f 74/180/183 99/159/165 101/162/168 78/181/184
s 17
f 84/120/185 105/182/174 96/183/159 81/121/186
f 16/98/187 40/46/163 97/158/162 76/184/188
s 16
f 102/161/167 100/160/166 69/185/189 75/186/190
f 82/187/191 107/188/156 111/189/171 83/190/192
s 17
f 93/153/157 95/156/160 80/191/177 73/134/193
f 81/192/186 96/155/159 94/154/158 71/139/194
s 16
f 91/149/153 107/152/156 82/193/191 70/194/195
f 79/195/180 108/151/155 92/150/154 72/196/196
s 17
f 88/142/197 109/197/175 105/182/174 84/120/185
f 85/174/178 106/173/173 110/198/176 89/199/198
s 16
f 90/200/199 103/201/169 112/176/172 86/175/179
f 83/190/192 111/189/171 104/202/170 87/203/200
s 17
f 76/146/188 97/204/162 109/197/175 88/142/197
f 89/199/198 110/198/176 98/205/161 77/206/182
s 16
f 78/207/184 101/208/168 103/201/169 90/200/199
f 87/203/200 104/202/170 102/209/167 75/210/190
s off
f 105/168/201 106/167/202 112/211/203 111/212/204
f 106/173/205 95/172/206 108/177/207 112/176/208
f 107/152/209 108/151/210 95/156/211 96/155/212
f 96/183/213 105/182/214 111/189/215 107/188/216
f 109/197/217 97/204/218 102/209/219 104/202/220
f 97/158/221 98/157/222 101/213/223 102/214/224
f 110/170/225 109/169/226 104/164/227 103/163/228
f 98/205/229 110/198/230 103/201/231 101/208/232
f 38/42/233 37/41/234 100/160/235 99/159/236
f 17/102/237 38/42/238 99/159/239 74/180/240
f 37/41/241 15/100/242 69/185/243 100/160/244
f 18/30/245 17/29/246 74/132/247
f 16/35/248 69/127/249 15/36/250
f 71/139/251 94/154/252 91/215/253 70/140/254
f 92/216/255 91/215/256 94/154/257 93/153/258
f 73/134/259 72/133/260 92/216/261 93/153/262
