# This file uses centimeters as units for non-parametric coordinates.

g default
v -0.132890 8.665139 0.000002
v -0.055747 6.251479 0.000002
v -2.878679 7.573318 0.000002
v -2.801538 6.251479 0.000002
v -0.080414 5.948720 0.000002
v 0.000000 0.054939 0.000000
v -2.826203 5.948720 0.000002
v -2.745790 0.054939 0.000000
v -3.115275 7.449758 0.000002
v -3.115275 6.251479 0.000002
v -5.861065 6.357936 0.000002
v -5.861067 6.251479 0.000002
v -3.115276 5.948720 0.000002
v -3.115276 3.149157 0.000002
v -5.861065 5.948720 0.000002
v -5.861067 3.149157 0.000002
v -3.115276 2.854499 0.000002
v -3.115273 0.334894 0.000001
v -5.861065 2.854499 0.000002
v -5.861063 0.334894 0.000001
v -6.153700 0.054939 0.124267
v -6.153700 6.620090 0.124267
v -6.153700 6.620090 0.010655
v -6.153700 0.054939 0.010655
v -0.055747 8.976467 0.010655
v -0.055747 8.976467 0.124267
v -6.153700 6.262342 0.124267
v -0.055747 6.262342 0.124267
v -6.153700 6.262342 0.010655
v -5.861063 0.054939 0.124267
v -5.861063 0.054939 0.010655
v -5.861065 6.262342 0.124267
v -5.861063 6.733171 0.010655
v -5.861063 6.733171 0.124267
v -6.153700 5.948720 0.124267
v -0.055747 5.948720 0.124267
v -5.861065 5.948720 0.124267
v -6.153700 5.948720 0.010655
v -6.153700 6.301069 0.010655
v -5.861065 6.339617 0.124267
v -0.055747 8.642888 0.124267
v -6.153700 6.301069 0.124267
v -2.745791 6.262342 0.124267
v -2.745791 5.948720 0.124267
v -2.745790 0.054939 0.010655
v -2.745790 0.054939 0.124267
v -2.745790 7.936976 0.124267
v -2.745790 7.936976 0.010655
v -2.745791 7.575606 0.124267
v -3.115274 0.054939 0.124267
v -3.115274 0.054939 0.010655
v -3.115275 5.948720 0.124267
v -3.115275 6.262342 0.124267
v -3.115275 7.429013 0.124267
v -3.115274 7.794202 0.010655
v -3.115274 7.794202 0.124267
v -6.153700 2.854500 0.124267
v -6.153700 3.149158 0.124267
v -2.745791 3.149157 0.124267
v -2.745791 2.854499 0.124267
v -3.115275 3.149157 0.124267
v -3.115275 2.854499 0.124267
v -5.861064 3.149157 0.124267
v -5.861064 2.854499 0.124267
v -6.153700 3.149158 0.010655
v -6.153700 2.854500 0.010655
v -3.115275 6.262342 -0.153754
v -3.115275 7.429013 -0.153754
v -2.745791 7.575606 -0.153754
v -2.745792 6.262342 -0.153754
v -2.745792 5.948720 -0.153754
v -3.115275 5.948720 -0.153754
v -5.861065 6.262342 -0.153754
v -6.153700 6.262342 -0.153754
v -5.861065 5.948720 -0.153754
v -6.153700 5.948720 -0.153754
v -6.153700 6.301069 -0.153754
v -5.861065 6.339617 -0.153754
v -6.153700 6.620090 -0.153754
v -5.861063 6.733171 -0.153754
v -2.745790 7.936976 -0.153754
v -3.115274 7.794202 -0.153754
v -0.055747 5.948720 -0.153754
v -0.055747 6.262342 -0.153754
v -0.055747 8.642888 -0.153754
v -0.055747 8.976467 -0.153754
v -2.745791 2.854500 -0.153754
v -2.745791 3.149158 -0.153754
v -3.115275 2.854500 -0.153754
v -3.115275 3.149158 -0.153754
v -5.861064 2.854500 -0.153754
v -5.861064 3.149158 -0.153754
v -6.153700 2.854500 -0.153754
v -6.153700 3.149158 -0.153754
v -3.115274 0.054939 -0.153754
v -2.745790 0.054939 -0.153754
v -5.861063 0.054939 -0.153754
v -6.153700 0.054939 -0.153754
v -6.153700 0.334895 0.124268
v -6.153700 0.334895 0.010655
v -6.153700 0.334895 -0.153753
v -5.861063 0.334895 -0.153753
v -5.861063 0.334895 0.124267
v -3.115274 0.334895 0.124267
v -3.115274 0.334895 -0.153753
v -2.745790 0.334895 -0.153753
v -2.745790 0.334895 0.124267
vt 0.440460 0.583720
vt 0.591168 0.584071
vt 0.585295 0.755329
vt 0.502685 0.757313
vt 0.805666 0.961337
vt 0.802678 0.593497
vt 0.974034 0.594444
vt 0.977022 0.962283
vt 0.459183 0.760580
vt 0.384413 0.759286
vt 0.387377 0.587954
vt 0.394020 0.588069
vt 0.978617 0.560510
vt 0.803905 0.561357
vt 0.803074 0.390001
vt 0.977786 0.389154
vt 0.539880 0.807663
vt 0.536505 0.964870
vt 0.365186 0.961192
vt 0.368561 0.803985
vt 0.093728 0.605915
vt 0.086638 0.605894
vt 0.086645 0.603477
vt 0.093735 0.603498
vt 0.676691 0.434017
vt 0.614139 0.433589
vt 0.613981 0.456647
vt 0.606891 0.456598
vt 0.353938 0.690948
vt 0.082653 0.351163
vt 0.082226 0.326360
vt 0.614654 0.522570
vt 0.051067 0.343209
vt 0.043977 0.343267
vt 0.043773 0.318548
vt 0.050863 0.318489
vt 0.726846 0.115037
vt 0.703787 0.114944
vt 0.093672 0.625487
vt 0.086581 0.625466
vt 0.615439 0.243972
vt 0.615314 0.262234
vt 0.677866 0.262663
vt 0.677991 0.244401
vt 0.032762 0.605738
vt 0.182580 0.690585
vt 0.050968 0.625363
vt 0.032706 0.625310
vt 0.032769 0.603321
vt 0.085824 0.535488
vt 0.086703 0.583568
vt 0.068461 0.576458
vt 0.052582 0.526909
vt 0.089278 0.576962
vt 0.032827 0.583412
vt 0.062842 0.526825
vt 0.061123 0.318404
vt 0.061327 0.343124
vt 0.093793 0.583589
vt 0.782017 0.546155
vt 0.782485 0.526588
vt 0.042289 0.138576
vt 0.049379 0.138518
vt 0.079119 0.145776
vt 0.059639 0.138433
vt 0.086022 0.818569
vt 0.086075 0.800180
vt 0.093166 0.800200
vt 0.093112 0.818589
vt 0.726143 0.289750
vt 0.726069 0.308139
vt 0.703011 0.308046
vt 0.783902 0.289982
vt 0.050409 0.818466
vt 0.050462 0.800077
vt 0.032146 0.818413
vt 0.032200 0.800024
vt 0.624399 0.433659
vt 0.641870 0.433779
vt 0.725437 0.465380
vt 0.624241 0.456717
vt 0.031691 0.975655
vt 0.643045 0.262424
vt 0.625574 0.262305
vt 0.625699 0.244042
vt 0.660520 0.244281
vt 0.092657 0.975831
vt 0.767333 0.095627
vt 0.767626 0.022819
vt 0.022805 0.326850
vt 0.744275 0.095535
vt 0.022445 0.625281
vt 0.022502 0.605708
vt 0.068390 0.601019
vt 0.068376 0.605841
vt 0.022509 0.603291
vt 0.781602 0.563501
vt 0.744196 0.115107
vt 0.782901 0.509243
vt 0.096467 0.145478
vt 0.767255 0.115200
vt 0.068319 0.625414
vt 0.743494 0.289820
vt 0.743419 0.308209
vt 0.766478 0.308301
vt 0.067760 0.818516
vt 0.067813 0.800127
vt 0.360402 0.577659
vt 0.021886 0.818383
vt 0.021939 0.799994
vt 0.659062 0.456956
vt 0.021430 0.975625
vt 0.660395 0.262543
vt 0.659220 0.433898
vt 0.765846 0.465543
vt 0.742787 0.465450
vt 0.641712 0.456837
vt 0.702378 0.465287
vt 0.744604 0.013578
vt 0.100001 0.350865
vt 0.784977 0.022889
vt 0.727254 0.013508
vt 0.615069 0.505225
vt 0.353859 0.727871
vt 0.353974 0.673597
vt 0.615538 0.485658
vt 0.726924 0.095465
vt 0.614186 0.542137
vt 0.353896 0.710520
vt 0.703866 0.095372
vt 0.766552 0.289912
vt 0.359288 0.630738
vt 0.359652 0.613391
vt 0.360038 0.595006
vt 0.783196 0.465612
vt 0.783829 0.308371
vt 0.703085 0.289657
vt 0.784605 0.115269
vt 0.784684 0.095697
vt 0.704159 0.022564
vt 0.049954 0.975708
vt 0.085567 0.975811
vt 0.067304 0.975758
vt 0.615559 0.226501
vt 0.625819 0.226571
vt 0.608469 0.226452
vt 0.643170 0.244162
vt 0.606771 0.474069
vt 0.624121 0.474188
vt 0.607049 0.433540
vt 0.676533 0.457076
vt 0.608224 0.262186
vt 0.608349 0.243923
vt 0.189467 0.555678
vt 0.189081 0.574064
vt 0.188332 0.609795
vt 0.188717 0.591410
vt 0.360788 0.559275
vt 0.187967 0.627142
vt 0.182658 0.653662
vt 0.182617 0.673235
vt 0.182538 0.710158
vt 0.051025 0.605791
vt 0.354016 0.654025
vt 0.182502 0.727508
vt 0.045492 0.526968
vt 0.022656 0.536009
vt 0.051039 0.600968
vt 0.074761 0.560292
vt 0.071035 0.569852
vt 0.099574 0.326061
vt 0.022933 0.146240
vt 0.103172 0.535190
vt 0.022787 0.351657
vt 0.783369 0.489676
vt 0.613770 0.559483
vt 0.093004 0.567402
vt 0.051110 0.576408
vt 0.022567 0.583382
vn 0.000000 0.000000 -1.000000
vn 0.000000 0.000000 -1.000000
vn 0.000000 0.000000 -1.000000
vn 0.000000 0.000000 -1.000000
vn -0.000000 0.000000 -1.000000
vn -0.000000 0.000000 -1.000000
vn -0.000000 0.000000 -1.000000
vn -0.000000 0.000000 -1.000000
vn 0.000000 0.000000 -1.000000
vn 0.000000 0.000000 -1.000000
vn 0.000000 0.000000 -1.000000
vn 0.000000 0.000000 -1.000000
vn 0.000000 0.000000 -1.000000
vn 0.000000 0.000000 -1.000000
vn 0.000000 0.000000 -1.000000
vn 0.000000 0.000000 -1.000000
vn 0.000000 0.000000 -1.000000
vn 0.000000 0.000000 -1.000000
vn 0.000000 0.000000 -1.000000
vn 0.000000 0.000000 -1.000000
vn -1.000000 0.000000 0.000000
vn -1.000000 0.000000 0.000000
vn -1.000000 0.000000 0.000000
vn -1.000000 0.000000 0.000000
vn 0.000000 -1.000000 0.000000
vn 0.000000 -1.000000 0.000000
vn 0.000000 -1.000000 0.000000
vn 0.000000 -1.000000 0.000000
vn 0.000000 0.000000 -1.000000
vn 0.000000 0.000000 -1.000000
vn 0.000000 0.000000 -1.000000
vn 0.000000 0.000000 -1.000000
vn -0.360445 0.932780 0.000000
vn -0.360445 0.932780 0.000000
vn -0.360446 0.932780 0.000000
vn -0.360446 0.932780 0.000000
vn 0.000000 0.000000 -1.000000
vn 0.000000 0.000000 -1.000000
vn -1.000000 0.000000 0.000000
vn -1.000000 0.000000 0.000000
vn 0.000000 -1.000000 0.000000
vn 0.000000 -1.000000 0.000000
vn 0.000000 -1.000000 0.000000
vn 0.000000 -1.000000 0.000000
vn -0.000000 0.000000 -1.000000
vn -0.000000 0.000000 -1.000000
vn 0.000000 0.000000 -1.000000
vn 0.000000 0.000000 -1.000000
vn 0.000000 0.000000 -1.000000
vn 0.000000 0.000000 -1.000000
vn -0.360448 0.932779 0.000000
vn -0.360446 0.932780 0.000000
vn -0.360446 0.932780 0.000000
vn -0.360448 0.932779 0.000000
vn 0.000000 0.000000 -1.000000
vn 0.000000 0.000000 -1.000000
vn 0.000000 0.000000 -1.000000
vn 0.000000 0.000000 -1.000000
vn -1.000000 0.000000 0.000000
vn -1.000000 0.000000 0.000000
vn 0.000000 0.000000 -1.000000
vn 0.000000 0.000000 -1.000000
vn -0.360446 0.932780 0.000000
vn -0.360446 0.932780 0.000000
vn 0.000000 0.000000 -1.000000
vn 0.000000 0.000000 -1.000000
vn -1.000000 0.000000 0.000000
vn -1.000000 0.000000 0.000000
vn -1.000000 0.000000 0.000000
vn -1.000000 0.000000 0.000000
vn 0.000000 0.000000 -1.000000
vn 0.000000 -0.000000 -1.000000
vn 0.000000 -0.000000 -1.000000
vn 0.000000 0.000000 -1.000000
vn 0.000000 -0.000000 -1.000000
vn 0.000000 0.000000 -1.000000
vn 0.000000 -0.000000 -1.000000
vn 0.000000 0.000000 -1.000000
vn 0.000000 0.000003 -1.000000
vn 0.000000 -0.000000 -1.000000
vn 0.000000 0.000000 -1.000000
vn 0.000000 0.000003 -1.000000
vn 0.000000 0.000000 -1.000000
vn 0.000000 0.000000 -1.000000
vn 0.000000 0.000003 -1.000000
vn 0.000000 0.000003 -1.000000
vn -1.000000 -0.000001 0.000000
vn -1.000000 -0.000002 0.000000
vn -1.000000 0.000000 0.000000
vn -1.000000 0.000000 0.000000
vn -1.000000 0.000000 0.000000
vn -1.000000 0.000000 0.000000
vn -1.000000 0.000000 0.000000
vn -1.000000 0.000000 0.000000
vn 1.000000 -0.000000 -0.000001
vn 1.000000 -0.000000 -0.000001
vn 1.000000 -0.000000 -0.000001
vn 1.000000 -0.000000 -0.000001
vn -1.000000 0.000000 0.000000
vn -1.000000 0.000000 0.000000
vn 1.000000 0.000000 0.000000
vn 1.000000 0.000000 0.000000
vn 1.000000 0.000000 0.000000
vn 1.000000 0.000000 0.000000
vn -1.000000 0.000000 0.000000
vn -0.360446 0.932780 0.000000
vn -0.360448 0.932779 0.000000
vn -1.000000 0.000000 0.000000
vn -0.360446 0.932780 0.000000
vn -0.360445 0.932780 0.000000
vn 0.000000 -1.000000 -0.000003
vn 0.000000 -1.000000 -0.000003
vn 0.000000 -1.000000 -0.000003
vn 0.000000 -1.000000 -0.000003
vn 0.000000 1.000000 0.000001
vn 0.000000 1.000000 0.000001
vn 0.000000 1.000000 0.000001
vn 0.000000 1.000000 0.000001
vn 0.368787 -0.929514 0.000000
vn 0.368787 -0.929514 0.000000
vn 0.368787 -0.929514 0.000000
vn 0.368787 -0.929514 0.000000
vn -0.360446 0.932780 0.000000
vn 0.000000 -1.000000 0.000000
vn 0.000000 -1.000000 0.000000
vn 0.000000 -1.000000 0.000000
vn 0.000000 -1.000000 0.000000
vn 0.000000 1.000000 0.000000
vn 0.000000 1.000000 0.000000
vn 0.000000 1.000000 0.000000
vn 0.000000 1.000000 0.000000
vn 0.368786 -0.929514 0.000000
vn 0.368786 -0.929514 0.000000
vn 0.368786 -0.929514 0.000000
vn 0.368786 -0.929514 0.000000
vn 1.000000 0.000000 -0.000001
vn 1.000000 0.000000 0.000000
vn 1.000000 0.000000 0.000000
vn 1.000000 0.000000 -0.000001
vn 0.000000 -1.000000 -0.000004
vn 0.000000 -1.000000 -0.000004
vn 0.000000 -1.000000 -0.000004
vn 0.000000 -1.000000 -0.000004
vn 0.000000 1.000000 0.000004
vn 0.000000 1.000000 0.000004
vn 0.000000 1.000000 0.000004
vn 0.000000 1.000000 0.000004
vn -1.000000 0.000000 0.000000
vn -1.000000 0.000000 0.000000
vn -1.000000 0.000000 0.000000
vn -1.000000 0.000000 0.000000
vn -1.000000 0.000000 0.000000
vn -1.000000 0.000000 0.000000
vn 1.000000 0.000000 -0.000001
vn 1.000000 0.000000 -0.000001
vn 1.000000 0.000000 0.000000
vn 1.000000 0.000000 0.000000
vn 1.000000 0.000000 0.000000
vn 1.000000 0.000000 0.000000
vn 1.000000 0.000000 0.000000
vn 1.000000 0.000000 0.000000
vn 1.000000 -0.000000 0.000000
vn 1.000000 -0.000000 0.000000
vn 0.000000 -1.000000 0.000000
vn 0.000000 -1.000000 0.000000
vn 0.000000 -1.000000 0.000000
vn 0.000000 -1.000000 0.000000
vn -1.000000 0.000000 0.000000
vn -1.000000 0.000000 0.000000
vn 1.000000 0.000000 0.000000
vn 1.000000 0.000000 0.000000
vn 1.000000 0.000000 0.000000
vn 1.000000 0.000000 0.000000
vn -1.000000 -0.000000 -0.000000
vn -1.000000 -0.000000 -0.000000
vn -1.000000 -0.000000 -0.000000
vn -1.000000 -0.000000 -0.000000
vn 0.000000 1.000000 0.000000
vn 0.000000 1.000000 0.000000
vn 0.000000 1.000000 0.000000
vn 0.000000 1.000000 0.000000
vn 0.000000 0.000003 -1.000000
vn 0.000000 0.000003 -1.000000
vn 0.000000 0.000003 -1.000000
vn 0.000000 0.000003 -1.000000
vn 0.000000 0.000000 1.000000
vn 0.000000 0.000000 1.000000
vn 0.000000 0.000000 1.000000
vn 0.000000 0.000000 1.000000
vn 0.000000 0.000000 1.000000
vn 0.000000 0.000000 1.000000
vn 0.000000 0.000000 1.000000
vn 0.000000 0.000000 1.000000
vn 0.000000 0.000000 1.000000
vn 0.000000 0.000000 1.000000
vn 0.000000 0.000000 1.000000
vn 0.000000 0.000000 1.000000
vn 0.000000 0.000000 1.000000
vn 0.000000 0.000000 1.000000
vn 0.000000 0.000000 1.000000
vn 0.000000 0.000000 1.000000
vn 0.000000 0.000000 1.000000
vn 0.000000 0.000000 1.000000
vn 0.000000 0.000000 1.000000
vn 0.000000 0.000000 1.000000
vn 0.000000 0.000000 1.000000
vn 0.000000 0.000000 1.000000
vn 0.000000 0.000000 1.000000
vn 0.000000 0.000000 1.000000
vn 0.000000 0.000000 1.000000
vn 0.000000 0.000000 1.000000
vn 0.000000 0.000000 1.000000
vn 0.000000 0.000000 1.000000
vn -0.000000 0.000000 1.000000
vn -0.000000 0.000000 1.000000
vn -0.000000 0.000000 1.000000
vn -0.000000 0.000000 1.000000
vn 0.000000 0.000000 1.000000
vn 0.000000 0.000000 1.000000
vn 0.000000 0.000000 1.000000
vn 0.000000 0.000000 1.000000
vn 0.000000 0.000000 1.000000
vn 0.000000 0.000000 1.000000
vn 0.000000 0.000000 1.000000
vn 0.000000 0.000000 1.000000
vn 0.000000 0.000000 1.000000
vn 0.000000 0.000000 1.000000
vn 0.000000 0.000000 1.000000
vn 0.000000 0.000000 1.000000
vn 0.000000 0.000000 1.000000
vn 0.000000 0.000000 1.000000
vn 0.000000 0.000000 1.000000
vn 0.000000 0.000000 1.000000
vn 0.000000 0.000000 1.000000
vn 0.000000 0.000000 1.000000
vn 0.000000 0.000000 1.000000
vn 0.000000 0.000000 1.000000
vn 0.000002 0.000000 1.000000
vn 0.000002 0.000000 1.000000
vn 0.000002 0.000000 1.000000
vn 0.000002 0.000000 1.000000
vn 0.000000 0.000000 1.000000
vn 0.000000 0.000000 1.000000
vn 0.000000 0.000000 1.000000
vn 0.000000 0.000000 1.000000
vn 0.000000 0.000000 1.000000
vn 0.000000 0.000000 1.000000
vn 0.000000 0.000000 1.000000
vn 0.000000 0.000000 1.000000
vn 0.000000 0.000000 1.000000
vn 0.000000 0.000000 1.000000
vn 0.000000 0.000000 1.000000
vn 0.000000 0.000000 1.000000
vn 0.000002 -0.000002 1.000000
vn 0.000002 -0.000002 1.000000
vn 0.000002 -0.000002 1.000000
vn 0.000002 -0.000002 1.000000
vn 0.000000 0.000000 1.000000
vn 0.000000 0.000000 1.000000
vn 0.000000 0.000000 1.000000
vn 0.000000 0.000000 1.000000
vn 1.000000 0.000000 0.000000
vn 1.000000 0.000000 0.000000
vn 1.000000 0.000000 0.000000
vn 0.000000 0.000000 1.000000
vn 0.000000 0.000000 1.000000
vn 0.000000 0.000000 1.000000
vn 0.000000 0.000000 1.000000
vn 0.000000 -1.000000 0.000000
vn 0.000000 -1.000000 0.000000
vn 0.000000 -1.000000 0.000000
vn 0.000000 -1.000000 0.000000
s off
g polySurface107
f 1/1/1 2/2/2 4/3/3 3/4/4
f 5/5/5 6/6/6 8/7/7 7/8/8
f 9/9/9 10/10/10 12/11/11 11/12/12
f 13/13/13 14/14/14 16/15/15 15/16/16
f 17/17/17 18/18/18 20/19/19 19/20/20
s 1
f 29/21/21 27/22/22 42/23/23 39/24/24
s 2
f 50/150/25 51/26/26 45/27/27 46/28/28
s 3
f 67/130/29 68/140/30 69/122/31 70/127/32
s 4
f 55/33/33 56/34/34 47/35/35 48/36/36
s 3
f 70/127/32 71/37/37 72/38/38 67/130/29
s 1
f 38/39/39 35/40/40 27/22/22 29/21/21
s 2
f 24/41/41 31/42/42 30/152/43 21/153/44
s 3
f 74/45/45 73/163/46 75/47/47 76/48/48
f 77/49/49 78/168/50 73/163/46 74/45/45
s 4
f 22/51/51 34/52/52 33/170/53 23/54/54
s 3
f 79/55/55 80/178/56 78/168/50 77/49/49
f 81/57/57 69/31/31 68/30/30 82/58/58
s 1
f 39/24/24 42/23/23 22/51/59 23/59/60
s 3
f 83/60/61 71/128/37 70/32/32 84/61/62
s 4
f 48/36/36 47/35/35 26/62/63 25/63/64
s 3
f 85/64/65 69/31/31 81/57/57 86/65/66
s 2
f 30/152/43 31/42/42 51/26/26 50/150/25
s 3
f 67/29/29 72/129/38 75/162/47 73/46/46
f 82/58/58 68/30/30 78/50/50 80/56/56
s 4
f 33/53/53 34/166/52 56/34/34 55/33/33
s 1
f 57/66/67 58/67/68 65/68/69 66/69/70
s 3
f 88/70/71 87/71/72 89/72/73 90/137/74
f 90/134/74 89/133/73 91/156/75 92/157/76
f 92/75/76 91/74/75 93/76/77 94/77/78
f 88/70/71 90/137/74 72/38/38 71/37/37
f 76/48/48 75/47/47 92/75/76 94/77/78
s 1
f 65/68/69 58/67/68 35/40/40 38/39/39
s 3
f 95/78/79 105/79/80 106/117/81 96/81/82
f 101/147/83 102/83/84 97/84/85 98/85/86
s 1
f 24/41/87 21/153/88 99/146/89 100/144/90
s off
f 53/88/91 54/89/92 68/121/93 67/139/94
f 49/119/95 43/91/96 70/127/97 69/122/98
s 1
f 38/92/39 29/93/21 74/45/99 76/48/100
s off
f 40/94/101 32/95/102 73/163/103 78/168/104
s 1
f 29/93/21 39/96/24 77/49/105 74/45/99
s 4
f 23/54/54 33/170/53 80/169/106 79/177/107
s 1
f 39/96/24 23/179/60 79/55/108 77/49/105
s 4
f 55/33/33 48/36/36 81/57/109 82/58/110
s off
f 36/97/111 44/176/112 71/128/113 83/60/114
f 43/123/115 28/99/116 84/61/117 70/32/118
f 41/100/119 49/171/120 69/31/121 85/64/122
s 4
f 48/36/36 25/63/64 86/65/123 81/57/109
s off
f 52/124/124 37/165/125 75/162/126 72/129/127
f 32/161/128 53/125/129 67/29/130 73/46/131
f 54/120/132 40/173/133 78/50/134 68/30/135
s 4
f 33/53/53 55/33/33 82/58/110 80/56/106
s 8
f 59/103/136 60/104/137 87/71/138 88/70/139
s off
f 62/132/140 64/159/141 91/156/142 89/133/143
f 63/155/144 61/108/145 90/134/146 92/157/147
s 1
f 66/109/70 65/110/69 94/77/148 93/76/149
s off
f 61/131/150 52/101/151 72/138/152 90/73/153
s 8
f 44/98/154 59/103/136 88/70/139 71/37/155
s off
f 37/102/156 63/107/157 92/75/158 75/47/159
s 1
f 65/110/69 38/92/39 76/48/100 94/77/148
s 8
f 106/149/160 107/148/161 45/27/162 96/81/163
s 2
f 45/27/27 51/26/26 95/78/164 96/81/165
f 31/42/42 24/41/41 98/85/166 97/84/167
s 1
f 24/41/87 100/144/90 101/145/168 98/85/169
f 100/87/90 99/142/89 57/66/67 66/69/70
f 101/82/168 100/112/90 66/109/70 93/76/149
s 3
f 93/76/77 91/74/75 102/141/84 101/82/83
s off
f 64/106/170 103/143/171 102/141/172 91/74/173
f 105/135/174 104/115/175 62/105/176 89/136/177
s 3
f 106/80/81 105/118/80 89/72/73 87/71/72
s 8
f 60/104/137 107/116/161 106/80/160 87/71/138
s off
f 102/83/178 103/113/179 104/114/180 105/79/181
f 105/79/182 95/78/183 97/84/184 102/83/185
f 37/160/186 52/164/187 53/125/188 32/161/189
f 35/40/190 58/67/191 63/107/192 37/102/193
f 56/34/194 34/166/195 40/167/196 54/174/197
f 27/22/198 35/40/199 37/102/200 32/95/201
f 42/23/202 27/22/203 32/95/204 40/94/205
f 22/51/206 42/23/207 40/94/208 34/52/209
f 43/91/210 49/119/211 54/89/212 53/88/213
f 26/62/214 47/35/215 49/90/216 41/172/217
f 56/34/218 54/174/219 49/90/220 47/35/221
f 28/99/222 43/123/223 44/126/224 36/175/225
f 53/88/226 52/101/227 44/98/228 43/91/229
f 52/101/230 61/131/231 59/103/232 44/98/233
f 64/154/234 62/158/235 61/108/236 63/155/237
f 57/66/238 99/142/239 103/143/240 64/106/241
f 63/107/242 58/67/243 57/66/244 64/106/245
f 62/105/246 104/115/247 107/116/248 60/104/249
f 30/43/250 50/25/251 104/114/252 103/113/253
f 21/44/254 30/43/255 103/113/256 99/86/257
f 50/25/258 46/151/259 107/111/260 104/114/261
f 46/28/262 45/27/263 107/148/264
f 59/103/265 61/131/266 62/105/267 60/104/268
f 51/26/269 31/42/270 97/84/271 95/78/272
