# This file uses centimeters as units for non-parametric coordinates.

g default
v -0.344727 0.054472 0.344727
v 0.344727 0.054472 0.344727
v -0.512710 0.743926 0.512710
v 0.512710 0.743926 0.512710
v -0.512710 0.743926 -0.512710
v 0.512710 0.743926 -0.512710
v -0.344727 0.054472 -0.344727
v 0.344727 0.054472 -0.344727
vt 0.007618 0.103018
vt 0.655860 0.411551
vt 0.520833 0.519011
vt 0.981266 0.482930
vt 0.013603 0.662573
vt 0.976781 0.974959
vt 0.061277 0.491813
vt 0.400588 0.971049
vt 0.061277 0.638478
vt 0.207943 0.638478
vt 0.666880 0.100731
vt 0.982633 0.026984
vt 0.010859 0.409563
vt 0.327161 0.480917
vt 0.207943 0.491813
vt 0.665961 0.407292
vt 0.094078 0.976678
vt 0.652667 0.105006
vt 0.469474 0.654200
vt 0.520833 0.974959
vt 0.341124 0.489526
vt 0.976781 0.519011
vt 0.336376 0.033602
vt 0.322342 0.024995
vn 0.000000 -0.236722 0.971578
vn 0.000000 -0.236722 0.971578
vn 0.000000 -0.236722 0.971577
vn 0.000000 -0.236722 0.971577
vn 0.000000 1.000000 0.000000
vn 0.000000 1.000000 0.000000
vn 0.000000 1.000000 0.000000
vn 0.000000 1.000000 0.000000
vn 0.000000 -0.236722 -0.971577
vn 0.000000 -0.236722 -0.971577
vn 0.000000 -0.236722 -0.971578
vn 0.000000 -0.236722 -0.971578
vn 0.000000 -1.000000 0.000000
vn 0.000000 -1.000000 0.000000
vn 0.000000 -1.000000 0.000000
vn 0.000000 -1.000000 0.000000
vn 0.971578 -0.236722 0.000000
vn 0.971578 -0.236722 0.000000
vn 0.971577 -0.236722 0.000000
vn 0.971577 -0.236722 0.000000
vn -0.971578 -0.236722 0.000000
vn -0.971578 -0.236722 0.000000
vn -0.971577 -0.236722 0.000000
vn -0.971577 -0.236722 0.000000
s off
g pCube1
f 1/18/1 2/2/2 4/21/3 3/23/4
f 3/3/5 4/22/6 6/6/7 5/20/8
f 5/5/9 6/19/10 8/8/11 7/17/12
f 7/7/13 8/15/14 2/10/15 1/9/16
f 2/16/17 8/11/18 6/12/19 4/4/20
f 7/13/21 1/1/22 3/24/23 5/14/24
